<?xml version="1.0" encoding="UTF-8"?><svg id="Layer_1" xmlns="http://www.w3.org/2000/svg" xmlns:xlink="http://www.w3.org/1999/xlink" viewBox="0 0 200 50" width="200" height="50"><defs><clipPath id="clippath"><rect width="200" height="50" style="fill:none; stroke-width:0px;"/></clipPath><linearGradient id="linear-gradient" x1="37.48" y1="24.25" x2="19.1" y2="30.22" gradientUnits="userSpaceOnUse"><stop offset="0" stop-color="#1ed94f"/><stop offset="1" stop-color="#f2f047"/></linearGradient></defs><g style="clip-path:url(#clippath);"><path d="M66.92,17.74h-6.72v18.23h-4.52v-18.23h-6.63v-3.65h17.87v3.65Z" style="fill:#0da84b; stroke-width:0px;"/><path d="M73.43,36.27c-2.39,0-4.34-.73-5.84-2.19s-2.25-3.41-2.25-5.85v-.42c0-1.63.32-3.09.95-4.38.63-1.29,1.53-2.28,2.69-2.98,1.16-.7,2.48-1.04,3.97-1.04,2.23,0,3.98.7,5.26,2.1,1.28,1.4,1.92,3.39,1.92,5.97v1.77h-10.38c.14,1.06.56,1.91,1.27,2.55.71.64,1.6.96,2.69.96,1.68,0,2.99-.61,3.93-1.82l2.14,2.39c-.65.92-1.54,1.64-2.65,2.16-1.11.52-2.35.77-3.71.77ZM72.94,22.91c-.86,0-1.56.29-2.1.88-.54.58-.88,1.42-1.03,2.5h6.06v-.35c-.02-.97-.28-1.71-.78-2.24-.5-.53-1.22-.79-2.14-.79Z" style="fill:#0da84b; stroke-width:0px;"/><path d="M90.92,31.48c0-.53-.26-.95-.79-1.25s-1.37-.58-2.54-.82c-3.88-.81-5.81-2.46-5.81-4.93,0-1.44.6-2.65,1.8-3.61,1.2-.97,2.77-1.45,4.71-1.45,2.07,0,3.72.49,4.96,1.46s1.86,2.23,1.86,3.79h-4.35c0-.62-.2-1.13-.6-1.54s-1.03-.61-1.88-.61c-.73,0-1.3.17-1.7.5-.4.33-.6.75-.6,1.26,0,.48.23.87.69,1.17.46.3,1.23.55,2.31.77,1.08.22,2,.46,2.74.73,2.3.84,3.45,2.3,3.45,4.37,0,1.48-.64,2.68-1.91,3.6-1.28.92-2.92,1.38-4.94,1.38-1.37,0-2.58-.24-3.64-.73-1.06-.49-1.89-1.15-2.49-2s-.9-1.76-.9-2.74h4.13c.04.77.33,1.36.86,1.77.53.41,1.25.62,2.14.62.83,0,1.46-.16,1.89-.47.43-.32.64-.73.64-1.24Z" style="fill:#0da84b; stroke-width:0px;"/><path d="M102.96,15.71v4h2.79v3.19h-2.79v8.12c0,.6.12,1.03.35,1.29.23.26.67.39,1.33.39.48,0,.91-.04,1.28-.1v3.29c-.85.26-1.73.39-2.64.39-3.05,0-4.61-1.54-4.67-4.61v-8.76h-2.38v-3.19h2.38v-4h4.35Z" style="fill:#0da84b; stroke-width:0px;"/><path d="M121.41,26.49h-8.68v5.86h10.18v3.62h-14.7V14.09h14.67v3.65h-10.15v5.21h8.68v3.53Z" style="fill:#039; stroke-width:0px;"/><path d="M129.13,19.71l.14,1.88c1.17-1.45,2.73-2.18,4.68-2.18,1.73,0,3.01.51,3.86,1.52s1.28,2.52,1.3,4.54v10.5h-4.35v-10.4c0-.92-.2-1.59-.6-2.01-.4-.42-1.07-.62-2-.62-1.22,0-2.14.52-2.76,1.56v11.47h-4.35v-16.26h4.1Z" style="fill:#039; stroke-width:0px;"/><path d="M150.71,31.48c0-.53-.26-.95-.79-1.25-.53-.31-1.37-.58-2.54-.82-3.88-.81-5.81-2.46-5.81-4.93,0-1.44.6-2.65,1.8-3.61,1.2-.97,2.77-1.45,4.71-1.45,2.07,0,3.72.49,4.96,1.46,1.24.97,1.86,2.23,1.86,3.79h-4.35c0-.62-.2-1.13-.6-1.54-.4-.41-1.03-.61-1.88-.61-.73,0-1.3.17-1.7.5-.4.33-.6.75-.6,1.26,0,.48.23.87.69,1.17s1.23.55,2.31.77c1.08.22,2,.46,2.74.73,2.3.84,3.45,2.3,3.45,4.37,0,1.48-.64,2.68-1.91,3.6-1.28.92-2.92,1.38-4.94,1.38-1.37,0-2.58-.24-3.64-.73-1.06-.49-1.89-1.15-2.49-2s-.9-1.76-.9-2.74h4.13c.04.77.33,1.36.86,1.77.53.41,1.25.62,2.14.62.83,0,1.46-.16,1.89-.47.43-.32.64-.73.64-1.24Z" style="fill:#039; stroke-width:0px;"/><path d="M167.05,34.32c-1.08,1.3-2.56,1.95-4.46,1.95-1.75,0-3.08-.5-4-1.5-.92-1-1.39-2.47-1.41-4.4v-10.65h4.35v10.52c0,1.69.77,2.54,2.32,2.54s2.49-.51,3.04-1.53v-11.52h4.37v16.26h-4.1l-.12-1.65Z" style="fill:#039; stroke-width:0px;"/><path d="M183.35,23.78c-.59-.08-1.12-.12-1.57-.12-1.65,0-2.73.56-3.24,1.67v10.64h-4.35v-16.26h4.11l.12,1.94c.87-1.49,2.08-2.24,3.63-2.24.48,0,.93.07,1.36.2l-.06,4.18Z" style="fill:#039; stroke-width:0px;"/><path d="M192.43,36.27c-2.39,0-4.34-.73-5.84-2.19-1.5-1.46-2.25-3.41-2.25-5.85v-.42c0-1.63.32-3.09.95-4.38.63-1.29,1.53-2.28,2.69-2.98,1.16-.7,2.48-1.04,3.97-1.04,2.23,0,3.98.7,5.26,2.1,1.28,1.4,1.92,3.39,1.92,5.97v1.77h-10.38c.14,1.06.57,1.91,1.27,2.55.71.64,1.6.96,2.69.96,1.68,0,2.99-.61,3.93-1.82l2.14,2.39c-.65.92-1.54,1.64-2.65,2.16-1.12.52-2.35.77-3.71.77ZM191.93,22.91c-.86,0-1.56.29-2.1.88-.54.58-.88,1.42-1.03,2.5h6.06v-.35c-.02-.97-.28-1.71-.78-2.24s-1.21-.79-2.14-.79Z" style="fill:#039; stroke-width:0px;"/><circle cx="21.76" cy="24.45" r="21.76" style="fill:#0da84b; stroke-width:0px;"/><path d="M5.02,12.73v5.29h9.09c.35,0,.63.29.63.65v18.71h5.18v-2.2c-6.36-6.46-4.3-19.31,4.54-22.45H5.02Z" style="fill:#fff; stroke-width:0px;"/><path d="M34.29,30.5c-.83.99-1.94,1.7-3.17,2.07-1.11.32-2.4.41-3.55.06-.43-.12-.59-.7-.3-1.03,0,0,11.23-13.77,11.23-13.77-.47-.63-1.01-1.21-1.6-1.73-2.11-1.88-4.87-2.96-7.7-2.95-6.87-.03-11.81,5.56-11.71,12.37-.11,6.67,4.95,12.36,11.71,12.32,3.59.03,7.06-1.73,9.23-4.59,0,0-3.52-3.6-3.52-3.6-.18.3-.39.58-.61.85ZM31.46,19.43h0M30.22,21.1c-2.04,2.76-5.97,8.06-5.97,8.06-.13.17-.33.27-.55.26-.99,0-1.23-3.14-1.23-3.9,0-1.1.18-2.11.52-3,.95-2.61,3.43-4.35,6.21-4.32.68,0,1.29.05,1.93.29.37.13.53.61.32.94M31.46,19.43s-.02.04-.04.05c0,0-.48.65-1.2,1.62" style="fill:#fff; stroke-width:0px;"/><path d="M36.01,19.71c-3.72,4.56-9.02,11.07-12.74,15.63-3.71-2.4-5.48-7.01-4.96-11.34h3.54c-.21,1.33-.28,5.98,1.82,6.16.46.03.91-.19,1.18-.56,0,0,7.16-9.68,7.16-9.68.05-.07.1-.14.14-.22h3.86Z" style="fill:url(#linear-gradient); stroke-width:0px;"/></g></svg>