<?xml version="1.0" encoding="UTF-8"?>
<svg width="20" height="20" viewBox="0 0 20 20" fill="none" xmlns="http://www.w3.org/2000/svg">
<title>ic_allprojects</title>
<g id="ic_allprojects">
<path d="M10 16.4648C9.72855 16.4648 9.45672 16.4006 9.21391 16.2792L2.67258 13.0086L0.323906 14.1829C0.125391 14.2822 0 14.485 0 14.707C0 14.9289 0.125391 15.1318 0.323906 15.2311L9.73797 19.9381C9.82043 19.9794 9.9102 20 10 20C10.0898 20 10.1796 19.9793 10.262 19.9381L19.6761 15.2311C19.8746 15.1318 20 14.9289 20 14.707C20 14.485 19.8746 14.2822 19.6761 14.1829L17.3274 13.0085L10.7861 16.2792C10.5433 16.4006 10.2714 16.4648 10 16.4648Z" fill="#04D500"/>
<path d="M19.6761 9.47585L17.3274 8.30151L10.7861 11.5722C10.5433 11.6936 10.2714 11.7578 10 11.7578C9.72855 11.7578 9.45672 11.6936 9.21391 11.5722L2.67258 8.30155L0.323906 9.47585C0.125391 9.57515 0 9.778 0 9.99995C0 10.2219 0.125391 10.4248 0.323906 10.5241L9.73797 15.2311C9.82043 15.2723 9.9102 15.2929 10 15.2929C10.0898 15.2929 10.1796 15.2723 10.262 15.2311L19.6761 10.5241C19.8746 10.4248 20 10.2219 20 9.99995C20 9.778 19.8746 9.57515 19.6761 9.47585Z" fill="#04D500"/>
<path d="M9.73797 10.5239C9.82043 10.5651 9.9102 10.5857 10 10.5857C10.0898 10.5857 10.1796 10.5651 10.262 10.5239L19.6761 5.81684C19.8746 5.71758 20 5.51469 20 5.29273C20 5.07078 19.8746 4.86793 19.6761 4.76863L10.262 0.0616016C10.0971 -0.0208594 9.90293 -0.0208594 9.73797 0.0616016L0.323906 4.76863C0.125391 4.86793 0 5.07078 0 5.29273C0 5.51469 0.125391 5.71754 0.323906 5.81684L9.73797 10.5239Z" fill="#04D500"/>
</g>
</svg>
