<?xml version="1.0" encoding="UTF-8"?>
<svg width="20" height="20" viewBox="0 0 20 20" fill="none" xmlns="http://www.w3.org/2000/svg">
<title>ic_modules</title>
<g id="ic_modules">
<path fill-rule="evenodd" clip-rule="evenodd" d="M5.45717 7.54404V2.00166C5.45717 1.02721 6.25443 0.22998 7.22881 0.22998H12.7712C13.7456 0.22998 14.5429 1.02725 14.5429 2.00166V7.54404C14.5429 8.5185 13.7456 9.31572 12.7712 9.31572H7.22881C6.25443 9.31568 5.45717 8.51846 5.45717 7.54404ZM17.9984 10.6844H12.456C11.4816 10.6844 10.6844 11.4816 10.6844 12.456V17.9984C10.6844 18.9728 11.4816 19.7701 12.456 19.7701H17.9984C18.9729 19.7701 19.7701 18.9728 19.7701 17.9984V12.456C19.7701 11.4816 18.9728 10.6844 17.9984 10.6844ZM7.54404 10.6844H2.00162C1.02725 10.6844 0.22998 11.4816 0.22998 12.456V17.9985C0.22998 18.9729 1.02725 19.7701 2.00162 19.7701H7.54404C8.51842 19.7701 9.31572 18.9729 9.31572 17.9985V12.456C9.31572 11.4816 8.51842 10.6844 7.54404 10.6844Z" fill="#04D500"/>
</g>
</svg>