<svg id="Capa_1" enable-background="new 0 0 512 512" height="20" viewBox="0 0 512 512" width="20" xmlns="http://www.w3.org/2000/svg"><g><path d="m361 8.787v81.213h81.213z" fill="#04D500"/><path d="m346 120c-8.284 0-15-6.716-15-15v-105h-255c-8.284 0-15 6.716-15 15v482c0 8.284 6.716 15 15 15h360c8.284 0 15-6.716 15-15v-377zm-175 230c0 2.757 2.243 5 5 5 8.284 0 15 6.716 15 15s-6.716 15-15 15c-19.299 0-35-15.701-35-35v-15c0-2.757-2.243-5-5-5-8.284 0-15-6.716-15-15s6.716-15 15-15c2.757 0 5-2.243 5-5v-15c0-19.299 15.701-35 35-35 8.284 0 15 6.716 15 15s-6.716 15-15 15c-11.476 0 1.884 21.146-11.292 40 9.049 12.948 5.472 24.668 6.292 35zm40-20c-8.284 0-15-6.716-15-15s6.716-15 15-15 15 6.716 15 15-6.716 15-15 15zm45 0c-8.284 0-15-6.716-15-15s6.716-15 15-15 15 6.716 15 15-6.716 15-15 15zm45 0c-8.284 0-15-6.716-15-15s6.716-15 15-15 15 6.716 15 15-6.716 15-15 15zm75 0c-2.757 0-5 2.243-5 5v15c0 19.299-15.701 35-35 35-8.284 0-15-6.716-15-15s6.716-15 15-15c11.476 0-1.884-21.146 11.292-40-9.048-12.948-5.472-24.668-6.292-35 0-2.757-2.243-5-5-5-8.284 0-15-6.716-15-15s6.716-15 15-15c19.299 0 35 15.701 35 35v15c0 2.757 2.243 5 5 5 8.284 0 15 6.716 15 15s-6.716 15-15 15z" fill="#04D500"/></g></svg>